<svg height="512pt" viewBox="0 0 512 512" width="512pt" xmlns="http://www.w3.org/2000/svg"><path d="m336.332031 86.011719-160.664062 33.519531-175.667969-36.648438v389.335938l175.667969 36.652344 160.664062-33.519532 175.667969 36.648438v-389.339844zm0 0" fill="#00b77a"/><path d="m336.332031 86.011719v389.339843l175.667969 36.648438v-389.339844zm0 0" fill="#00da78"/><path d="m175.667969 119.53125-175.667969-36.648438v389.335938l175.667969 36.652344zm0 0" fill="#00da78"/><path d="m281.65625 105.300781c0 31.832031-16.316406 56.574219-34.496094 81.199219l-42.90625 58.144531c-2.324218 3.152344-4.683594 6.390625-6.957031 9.523438-4.609375 6.34375-9.378906 12.902343-14.289063 19.257812l-7.339843 9.5-.175781.222657-71.316407-96.648438c-18.179687-24.625-34.496093-49.375-34.496093-81.199219 0-58.066406 47.542968-105.300781 105.976562-105.300781h.441406c58.242188.234375 105.558594 47.382812 105.558594 105.300781zm0 0" fill="#ff623f"/><path d="m231.3125 105.300781c0 30.480469-24.964844 55.277344-55.644531 55.277344-30.683594 0-55.648438-24.796875-55.648438-55.277344 0-30.488281 24.964844-55.285156 55.648438-55.285156 30.679687 0 55.644531 24.796875 55.644531 55.285156zm0 0" fill="#fff"/><path d="m281.65625 105.300781c0 31.832031-16.316406 56.574219-34.496094 81.199219l-42.90625 58.144531c-2.324218 3.152344-4.683594 6.390625-6.957031 9.523438-4.609375 6.34375-9.378906 12.902343-14.289063 19.257812l-7.339843 9.5v-282.925781h.429687c58.242188.234375 105.558594 47.382812 105.558594 105.300781zm0 0" fill="#e30020"/><path d="m175.667969 160.578125v-110.5625c30.679687 0 55.644531 24.796875 55.644531 55.285156 0 30.480469-24.964844 55.277344-55.644531 55.277344zm0 0" fill="#d6d6d8"/></svg>